<svg xmlns="http://www.w3.org/2000/svg" viewBox="-13.1445 -16.1 25.84 29.22" fill="#f23d09" stroke="#f23d09">
	<path d="M1.4-15.75c0 .14-.09.45-.2.67-.27.56-.25.72.1 1.23.34.49.37.67.15.89-.14.13-.11.2.29.6.26.26.5.61.57.85.11.36.16.41.43.41.59 0 1.49.28 1.93.59.25.18.72.38 1.06.46.47.11.68.22.88.45.14.16.31.3.37.3.07 0 .12.03.12.08 0 .04.14.13.31.21.27.12.33.12.4 0 .05-.08.09-.19.09-.25s.09-.23.2-.37c.18-.23.19-.3.08-.7-.09-.36-.09-.6.02-1.16.07-.39.16-.71.2-.71s.05-.29.03-.65c-.06-.74.01-.9.76-1.67.31-.32.49-.61.56-.9.08-.3.17-.44.3-.46.18-.03.19-.02.02.08-.11.07-.17.23-.17.46 0 .29-.1.46-.54.92-.29.31-.58.67-.65.79-.15.3-.14.78.04 1.37.17.56.2 1.2.05 1.11-.06-.03-.1-.19-.1-.35 0-.34-.09-.6-.21-.6-.04 0-.08.12-.07.27 0 .16-.03.51-.07.79-.05.37-.03.58.07.79.15.27.14.31-.14.74-.15.25-.31.63-.35.83-.03.21-.08.38-.12.38-.03 0-.14-.14-.23-.31-.1-.17-.23-.27-.29-.24-.06.04-.18-.03-.26-.15-.1-.14-.22-.2-.34-.17-.13.04-.19 0-.19-.12 0-.23-.31-.51-.57-.51-.34 0-.98-.27-1.43-.59-.49-.35-.92-.46-2.05-.5-.27-.01-.3-.04-.31-.36-.01-.42-.25-.78-.83-1.22l-.42-.32.26-.17c.32-.21.31-.35-.01-.73-.36-.43-.42-1-.15-1.44.11-.19.21-.46.21-.61 0-.14.04-.26.1-.26.05 0 .1.11.1.25Zm-.37-.04c.09.35-.46.39-.59.04-.1-.25.06-.32.22-.11.12.17.14.18.14.03 0-.24.17-.21.23.04Zm-.86.65c-.02.49-.1 1.08-.18 1.31-.12.4-.12.44.09.66l.23.24-.31.64c-.16.35-.3.76-.3.91 0 .35-.22.36-1.03.08-.51-.18-.61-.19-.9-.07-.3.13-.34.12-.48-.07-.37-.49-.31-.96.19-1.5.22-.24.24-.28.07-.21-.45.18-.76.18-.89 0-.14-.19-.36-.13-.36.11 0 .27-.18.14-.37-.26-.2-.44-.37-.54-.27-.16.03.13.01.27-.06.31-.08.05-.09.31-.04.86.04.52.03.79-.04.79-.14 0-.22-.25-.22-.65 0-.19-.05-.37-.1-.4-.06-.03-.1.03-.1.15 0 .11-.1.34-.22.51-.22.29-.22.31-.06.6.13.22.16.42.11.74-.06.48.09.38-1.91 1.33-.29.13-.7.42-.91.63-.33.34-.43.38-.7.33-.29-.06-.46.09-.2.18.16.05.01.48-.16.48-.24 0-.51-.38-.8-1.11-.23-.6-.27-.81-.22-1.32.04-.41.01-.72-.08-.94-.08-.19-.11-.41-.08-.49.12-.32.34.6.33 1.4 0 .43.03.83.08.9.05.06.16.32.26.58.18.49.56.95.42.51-.08-.25.16-.43.58-.43.14 0 .26-.04.26-.09 0-.06.13-.18.29-.27.17-.1.28-.21.25-.26s-.02-.08.03-.07c.16.04.62-.24.56-.34-.03-.06-.01-.07.05-.03s.19.03.29-.03c.1-.05.42-.19.71-.32.3-.13.58-.31.63-.4.13-.25.13-.7.01-1.02-.11-.27-.08-.45.2-.92.06-.11.14-.27.18-.35s.11-.14.16-.14c.05.01.16-.21.25-.5.17-.55.43-.72.54-.36.06.18.12.21.35.16.18-.03.33-0 .4.09.14.17.43.19.7.05.13-.07.21-.05.31.06.1.12.08.2-.11.46-.24.33-.33.83-.19 1.1.07.13.15.15.36.09.34-.1.59-.06 1.16.17.44.18.54.15.6-.22.03-.18.15-.53.26-.77.21-.42.21-.45.05-.75-.16-.29-.16-.35 0-.84.12-.35.16-.76.14-1.23-.02-.51.01-.72.1-.75.11-.03.13.14.09.84Zm9.98-.06c-.03.32-.14.64-.3.87-.24.37-.25.38-.05.45.11.04.23.16.26.25.03.1.09.26.14.35s.07.36.04.6c-.05.35.01.57.25 1.11.17.37.31.8.31.95 0 .25-.22.69-.42.83-.05.03-.09.42-.09.86 0 .69.03.85.2 1.02.28.28.36.85.21 1.44-.1.4-.1.51.01.57.18.12.26.05.49-.44.34-.76.73-.87.64-.18-.07.44-.6 1.77-.85 2.1-.22.29-.2.37.33 1.47l.43.9V-.82c0 .67.03 1.22.07 1.22.11 0 .17-.15.2-.49.03-.36.21-.56.43-.47.23.09.19.8-.09 1.39-.16.35-.27.8-.31 1.37-.08.89-.22 1.3-.54 1.52-.11.08-.29.43-.41.78-.71 2.15-2.16 4.22-3.85 5.5-.26.19-.61.47-.78.61-.18.14-.47.32-.65.4-.17.08-.32.18-.32.22 0 .05-.05.05-.1.02-.06-.03-.1-.02-.1.03 0 .06-.12.13-.28.17-.15.03-.49.17-.75.31-.27.13-.55.24-.63.24s-.14.04-.14.1c0 .05-.11.1-.23.1-.24 0-.61.31-.52.43.03.04.03.05 0 .03s-.33.07-.67.19c-.51.19-.68.2-1.07.12-.43-.1-.69-.11-1.66-.08-.22.01-.6-.05-.84-.14-.24-.08-.65-.15-.9-.15-.88 0-2.48-.53-3.08-1.02-.07-.05-.26-.07-.42-.03-.34.07-.97-.27-1.05-.58-.02-.1-.08-.17-.13-.15-.04.01-.66-.55-1.37-1.25-.7-.7-1.32-1.27-1.37-1.27-.13 0-.66-.86-.8-1.29-.07-.2-.22-.47-.35-.6s-.25-.3-.25-.37c-.03-.29-.04-.33-.17-.46-.06-.06-.12-.16-.12-.2 0-.07-.36-.51-.77-.93-.06-.06-.08-.17-.05-.23.04-.05.07-.73.07-1.49V1.35l-.38-.73c-.45-.86-.5-1.25-.31-2.17.08-.37.12-.7.09-.73s.02-.14.11-.24c.13-.13.2-.15.3-.07s.12.3.07.88c-.06.71-.05.75.11.62.1-.08.15-.23.13-.33-.03-.1-.01-.18.03-.18.17 0 .31-1.13.27-2.17-.02-.6 0-1.19.06-1.33.17-.46.11-1.36-.12-1.73-.12-.19-.22-.45-.23-.59-.02-.25.39-1.05.66-1.28.25-.2.2-1-.09-1.56-.28-.53-.3-.63-.13-.99.13-.28.58-.36.58-.1 0 .08.06.15.12.15.1 0 .09.03-.01.09-.11.07-.1.13.05.35.11.14.23.26.27.26.05 0 .05.05.01.11-.04.07-.01.1.07.07.1-.03.14-.22.15-.61 0-.32.05-.62.11-.68.13-.13.1 1.12-.04 1.71l-.09.35-.24-.47c-.13-.26-.34-.58-.47-.7-.28-.26-.31-.5-.06-.41.16.06.16.05.04-.1-.1-.13-.17-.15-.27-.06-.21.17-.17.55.1 1.02.46.82.43 1.23-.19 2.04-.41.53-.44.84-.13 1.33.16.25.22.51.23.95 0 .33.04.72.09.87.05.19.05.28-.03.28-.06 0-.11-.06-.11-.14s-.04-.18-.1-.21c-.06-.04-.08.1-.06.37.12 1.2.09 2.25-.08 2.83-.1.33-.24.89-.31 1.25l-.12.65-.19-.4c-.14-.3-.19-.62-.18-1.25 0-.66-.01-.77-.08-.5-.33 1.39-.3 1.8.17 2.75.39.78.4.83.4 1.82 0 .56.03 1.05.07 1.08.04.04.03.18-.03.32-.14.38-.11.5.23.9.55.64.78 1.01.78 1.27 0 .16.09.32.23.41.13.08.29.34.36.56.19.63.42.94 1.22 1.66 1.34 1.19 1.99 1.84 1.96 1.96-.01.07.07.11.2.1.16-.02.23.04.25.19.02.13.13.27.24.33.12.06.28.16.36.23.23.18.3.02.12-.26l-.17-.25.29.2c.46.32 1.85 1 2.34 1.14.25.06.76.15 1.15.19.38.04.96.13 1.27.21.4.09.68.1.95.03.28-.06.54-.05.95.06.65.16 1.33.05 1.78-.3.24-.19.38-.27 1.05-.55 1.13-.49 2.34-1.1 2.87-1.46.8-.55 2.16-1.85 2.79-2.69.61-.79 1.64-2.83 1.8-3.54.08-.37.18-.55.33-.62.31-.13.44-.5.5-1.39.05-.88.1-1.08.38-1.44.12-.16.18-.41.18-.73 0-.57-.15-.58-.18-.01-.02.23-.12.48-.26.63-.13.14-.28.34-.35.45-.09.16-.11-.17-.09-1.45l.01-1.65-.46-.94c-.26-.52-.47-1-.47-1.07 0-.08.13-.34.29-.59.25-.39.5-1.01.81-1.98.04-.15.05-.27 0-.27s-.14.16-.2.35c-.24.72-.9 1.22-1.06.8-.04-.08-.01-.43.06-.78.09-.46.1-.74.02-1.03l-.1-.39-.01.37c-.01.42-.16.51-.24.15-.03-.12-.09-.64-.13-1.15l-.07-.93.33-.45c.39-.54.37-.77-.1-1.78-.29-.6-.31-.71-.2-.92.1-.18.11-.3.02-.49-.07-.14-.12-.35-.12-.46s-.05-.17-.1-.14c-.06.03-.1.28-.1.56 0 .34-.04.49-.13.49-.16 0-.37-.41-.37-.71 0-.24.33-.91.54-1.08.16-.13.31-.65.27-.93-.01-.09.03-.19.08-.23.07-.04.09.12.06.45Zm-.72 1.82c.03.08.06.05.06-.06.01-.11-.02-.17-.05-.13-.03.03-.04.12-.01.19ZM1.05-10c.17.17.25.18.57.1.37-.11.8-.01.93.2.05.07.21.09.46.05.3-.05.4-.03.45.09.03.09.21.25.4.36.25.16.38.19.52.11.26-.14 1.13.19 1.26.48.06.14.18.21.38.21.31 0 .59.23.82.68.08.16.29.35.46.42.36.15.9.85.9 1.17 0 .17.11.28.47.45.41.2.48.27.46.5-.01.19.07.35.28.52.16.14.29.3.29.37 0 .06.1.27.21.46.16.26.2.43.15.72-.07.47.27 1.37.55 1.46.25.08.24.43-.01.75s-.25.45.01.87c.16.26.18.37.1.47-.09.11-.07.22.08.49.2.35.2.35-.01.89-.12.29-.22.8-.23 1.12-.02.5-.06.63-.28.8-.18.16-.27.35-.32.72-.04.34-.03.54.04.59.16.09.03.25-.34.41-.27.11-.35.22-.44.6-.07.26-.23.66-.37.89-.13.23-.24.5-.24.61s-.14.28-.32.39-.44.28-.58.37c-.14.1-.37.24-.53.33-.15.09-.27.24-.27.34 0 .19-.29.51-.48.51-.06 0-.12.1-.14.22-.02.17-.15.26-.5.37-.28.08-.5.22-.53.32-.07.2-.54.39-1 .39-.21 0-.4.09-.55.25-.13.14-.34.25-.47.25-.21 0-.22-.03-.13-.21.07-.12.1-.56.08-1.07-.03-.79-.01-.87.17-.9.16-.04.17-.02.07.1-.08.1-.1.39-.05.96l.06.82.31-.2c.18-.1.49-.21.7-.23.23-.03.48-.15.65-.31.16-.15.35-.29.42-.31.38-.09.59-.18.59-.27 0-.05.12-.21.27-.36.16-.15.33-.36.38-.47.06-.11.2-.25.33-.31.12-.06.19-.14.14-.19-.04-.05-.01-.05.05-.01.07.04.13.02.13-.03 0-.06.06-.11.14-.11.17 0 .86-.6.86-.74 0-.06.12-.33.26-.6s.28-.6.3-.75c.07-.42.25-.69.54-.81.25-.1.28-.16.29-.71.01-.56.29-1.28.44-1.13.09.09.18-.36.14-.71-.02-.17.02-.44.09-.6.07-.17.12-.32.12-.35.01-.03.04-.14.08-.24s.02-.33-.05-.5c-.07-.17-.14-.47-.15-.66-.02-.19-.1-.52-.19-.73-.1-.2-.14-.37-.09-.37.04 0 .16-.14.26-.31.18-.3.18-.31-.02-.52-.42-.46-.64-1.06-.57-1.56.05-.4.03-.49-.2-.74-.14-.15-.23-.32-.2-.37s-.03-.15-.15-.22c-.11-.07-.2-.18-.2-.25S9.05-4.8 9-4.8c-.06 0-.08-.1-.04-.24.05-.21 0-.28-.34-.45-.46-.23-.53-.32-.67-.81-.08-.26-.25-.44-.64-.71-.29-.19-.59-.49-.67-.66-.16-.31-.39-.47-.86-.57-.15-.03-.29-.15-.33-.25-.07-.24-.6-.43-1.07-.39-.32.02-.97-.31-1.06-.54-.05-.11-.42-.1-.42.02s-.27.02-.64-.23c-.23-.16-.32-.18-.47-.09-.27.17-.53.15-.83-.09-.14-.11-.3-.18-.35-.15-.17.11-.86.15-.97.05-.07-.06-.36-.05-.8.01-.81.13-.77.13-1.3.04-.37-.06-.44-.03-.8.31-.47.44-.72.55-1.01.44-.13-.05-.25-.04-.28.01-.04.06-.16.1-.29.1s-.35.13-.5.31c-.15.17-.45.39-.67.48-.21.1-.36.21-.32.24.09.1-.01.09-.31-.03-.22-.08-.27-.06-.43.2-.09.17-.21.3-.25.3s-.38.31-.77.68c-.52.51-.71.77-.76 1.04-.04.2-.16.44-.26.54-.1.09-.19.21-.19.26s-.1.22-.21.37c-.12.16-.19.34-.15.39.03.05-.01.15-.09.22s-.15.18-.15.25c0 .06-.08.22-.19.34s-.19.37-.19.6c-.01.27-.11.53-.32.83-.3.43-.31.47-.2.85.1.33.1.45-.04.71-.09.17-.16.43-.16.57s-.07.37-.16.5c-.15.23-.15.27.01.52.17.26.19.26.26.08.04-.11.08-.38.08-.61.01-.5.23-.85.43-.66.18.18.18 2.03-.01 2.25-.07.09-.16.46-.18.82l-.06.64.26-.12c.14-.06.33-.25.42-.4.19-.32.33-.3.15.02-.07.14-.08.43-.04.81.05.42.03.6-.05.6-.06 0-.11-.15-.11-.33s-.06-.41-.13-.51c-.12-.16-.14-.16-.26-.02s-.12.16.03.1c.17-.07.2.05.1.43-.06.22-.06.22-.3-.06-.32-.38-.33-1.27-.03-2.03.2-.51.24-.91.19-1.75-.03-.6-.2-.43-.2.2 0 .51-.27 1.28-.49 1.41-.07.05-.11-.04-.11-.23 0-.17-.07-.46-.17-.65-.15-.32-.15-.37 0-.6.1-.14.17-.37.17-.51s.07-.37.16-.51c.14-.21.15-.31.05-.63-.15-.52-.15-.53.19-.96.22-.27.3-.49.3-.76 0-.24.09-.52.25-.75.14-.2.3-.54.37-.75.06-.22.15-.39.19-.39s.11-.09.14-.21c.04-.12.16-.3.26-.4s.19-.31.19-.45.11-.4.26-.56c.14-.17.23-.37.2-.45-.04-.11-.01-.13.14-.08.14.05.2.02.2-.09 0-.09.07-.16.15-.16s.2-.09.27-.2.18-.2.25-.2.23-.17.36-.37c.21-.32.29-.37.64-.38.48-.01 1.14-.42 1.32-.81.08-.19.16-.24.32-.19.14.05.25.01.34-.11.13-.18.14-.18.34 0s.21.18.55-.03c.18-.12.37-.28.4-.36.08-.23.67-.43.94-.34.29.11.79.12.85.01.05-.06.65-.06 1.52 0 .16.01.44-.01.6-.05.23-.06.35-.03.5.13ZM-10.21-7.92c.2.62.22.85.17 1.44-.09.84-.15 1.05-.27.87-.04-.07-.05-.42-.02-.77.04-.38.01-.77-.06-1-.07-.2-.11-.57-.09-.82l.03-.45.24.73ZM1.33 3.22c-.1.13-.23.73-.24 1.12 0 .11-.2.41-.44.68-.25.26-.45.48-.46.5-.03.14-.21 2.33-.22 2.69-.02.36.04.52.26.78.15.18.3.44.33.57.08.32-.07 1.06-.22 1.11-.19.06-.44-.26-.44-.57 0-.16-.04-.31-.1-.35-.05-.03-.06-.13-.03-.22.04-.11.03-.14-.05-.09-.07.04-.12.27-.12.52 0 .57-.1.76-.55 1.03-.19.11-.4.32-.47.46-.09.21-.17.25-.35.2-.13-.03-.23-.02-.23.02 0 .05-.25.08-.55.08-.47 0-.58-.04-.8-.27-.14-.15-.25-.32-.25-.38 0-.13-.17-.13-.25 0-.1.17-.51.11-.7-.1-.1-.11-.23-.19-.29-.18-.15.03-.69-.27-.85-.46-.08-.09-.22-.16-.32-.16-.11 0-.19-.06-.19-.13 0-.18-.48-.6-.92-.79-.2-.09-.39-.26-.42-.36C-7.62 8.68-8.47 8-8.7 8s-.57-.39-.64-.76c-.04-.19-.15-.34-.25-.37-.29-.07-.36-.91-.11-1.42.23-.48.26-1.07.06-1.62-.11-.32-.11-.42-.01-.56.11-.16.14-.12.19.3.19 1.38.18 1.52-.02 1.87-.11.19-.19.43-.17.53s.04.3.04.45c.01.16.06.27.13.25.06-.01.18.16.27.38.17.45.21.49 1.09 1.05.34.22.67.51.73.64s.28.32.48.43c.2.1.47.29.61.43.39.38.89.74 1.53 1.08.46.24.65.28.87.22.25-.07.32-.04.59.3.29.36.33.38.73.33.24-.02.53-.06.65-.07.12-.01.39-.21.6-.44.22-.23.42-.4.45-.36.11.1.37-.52.32-.73-.06-.23.11-.63.26-.63.08 0 .26.33.45.85.07.17.09.15.16-.15.06-.27.03-.42-.12-.65-.46-.73-.52-.96-.4-1.65.06-.36.13-.97.15-1.37.05-.78.19-1.12.64-1.59.27-.28.44-.69.48-1.14.03-.34.05-.38.2-.44.13-.05.14-.03.07.06ZM1.45 4c-.06.55-.15.89-.37 1.27-.16.29-.27.57-.24.62.04.05.02.12-.03.15-.08.05-.2.49-.27 1.01-.04.35.24 1.2.56 1.63.17.24.33.56.37.72.05.29.06.29.35.14.27-.14.29-.19.24-.47-.16-.76-.18-1-.11-1.43.1-.71.54-.71.55 0 0 .26.02.28.27.21l.28-.07-.29.31c-.36.37-.46.28-.46-.42 0-.26-.05-.47-.11-.47-.05 0-.08.04-.05.08s.01.26-.04.47c-.06.27-.05.5.06.79.25.74.18 1.07-.29 1.25-.17.07-.32.23-.38.41-.06.16-.15.3-.19.3-.18 0-.2-.2-.09-.64.11-.45.1-.47-.3-1.1C.37 7.94.3 7.67.4 6.78c.09-.74.27-1.28.63-1.81.11-.16.2-.52.23-.89.03-.35.09-.67.15-.73.08-.07.09.12.04.65ZM3.04 8.39c-.07.42-.06.44.14.39.12-.04.24-.03.27.02.03.04-.06.11-.2.14-.16.04-.27.16-.31.34-.1.41-.24.63-.35.56-.06-.03-.06-.1-.01-.17s.12-.4.14-.75c.03-.41.1-.68.22-.8.16-.16.17-.15.1.27Z" stroke-width=".3" />
</svg>
